<svg width="225" height="225" viewBox="0 0 225 225" fill="none" xmlns="http://www.w3.org/2000/svg">
<g opacity="0.8" filter="url(#filter0_f_1603_16582)">
<circle cx="112.5" cy="112.5" r="92.5" fill="#FCBF49"/>
</g>
<path fill-rule="evenodd" clip-rule="evenodd" d="M126.625 86.6214C128.311 85.6747 129.296 83.9775 130.27 82.2975C130.417 82.0448 130.563 81.7927 130.711 81.5434C130.811 81.3766 130.919 81.2045 131.03 81.0292V81.0291C131.323 80.5658 131.63 80.0791 131.821 79.6025C131.905 79.3941 131.978 79.0883 132.051 78.7792C132.137 78.4147 132.225 78.0456 132.333 77.827C132.57 77.3495 134.368 77.1322 135.593 76.9842C135.997 76.9353 136.339 76.8941 136.541 76.8533C138.694 76.4214 141.266 76.1623 143.025 77.8473C143.443 78.2478 143.911 78.6172 144.381 78.9878C144.945 79.432 145.51 79.8781 145.994 80.3817C146.772 81.1905 147.818 82.5509 148.188 83.6314C146.293 83.9966 143.145 85.1152 142.39 87.1034C139.613 84.5541 138.441 88.8003 137.825 91.0284C137.788 91.1644 137.752 91.293 137.719 91.4119C136.206 90.7573 136.285 88.7656 136.342 87.3072V87.307C136.35 87.1027 136.358 86.9089 136.361 86.7306C136.365 86.4662 136.405 86.1908 136.444 85.922C136.576 85.0211 136.696 84.1964 135.409 84.1237C134.16 84.0536 132.948 84.562 131.821 85.0381C130.416 85.6323 128.942 86.5211 127.808 87.542L126.625 86.6214ZM123.896 82.6498C123.896 82.6983 123.895 82.7466 123.895 82.7948C123.89 83.2244 123.886 83.6525 124.017 84.0666C124.092 84.3059 124.093 84.6559 124.094 84.992C124.095 85.2356 124.096 85.472 124.125 85.6537C122.905 85.2825 120.639 84.7317 119.394 85.2325C118.203 85.7111 118.054 87.9247 118.012 89.0014C118.001 89.2734 118.039 89.6002 118.079 89.9392C118.146 90.5147 118.217 91.1261 118.062 91.5681C117.942 91.9089 117.946 92.0097 117.954 92.0342C117.933 92.0222 117.84 92.0186 117.498 92.2656C117.345 92.3755 117.179 92.463 117.012 92.5508C116.814 92.6555 116.614 92.7608 116.434 92.9055C115.957 93.2906 115.794 93.7167 115.598 94.228C115.548 94.3598 115.495 94.4975 115.434 94.6416C115.146 95.3237 114.379 95.93 113.523 95.9053C113.632 95.7078 113.748 95.5125 113.863 95.3177C114.476 94.2816 115.08 93.2609 114.618 92.0277C114.213 90.943 114.902 89.6737 115.467 88.6344L115.5 88.5734C115.535 88.5097 115.634 88.368 115.766 88.1778C116.356 87.3312 117.613 85.5256 116.855 85.3722C116.317 85.263 115.155 87.5119 114.725 88.3434C114.674 88.4422 114.633 88.5211 114.606 88.5734C113.868 88.0745 113.536 87.4595 114.104 86.7081C114.305 86.4423 114.527 86.1944 114.749 85.9458C115.01 85.6545 115.271 85.3625 115.5 85.0402C115.703 84.7559 115.903 84.4555 116.106 84.1512C116.596 83.4172 117.102 82.6603 117.681 82.0514C119.119 80.5389 121.629 79.5092 123.699 79.5C123.653 80.0892 123.72 80.6553 123.788 81.2291C123.843 81.6923 123.899 82.1605 123.896 82.6498ZM117.959 92.0409C117.96 92.04 117.958 92.0369 117.954 92.0342C117.956 92.0405 117.958 92.0417 117.959 92.0409ZM129.736 106.816C130.144 105.959 130.501 105.209 130.711 104.831C131.984 102.541 133.244 100.27 134.438 97.9375C133.491 98.2983 132.69 98.8514 131.878 99.4119C131.755 99.4964 131.633 99.5809 131.509 99.6652C131.081 99.9569 130.615 100.22 130.146 100.485C129.441 100.882 128.732 101.283 128.14 101.787C128.005 101.901 127.897 102.027 127.794 102.148C127.557 102.423 127.348 102.667 126.921 102.663C126.63 102.66 126.217 102.36 125.848 102.09C125.634 101.934 125.433 101.788 125.281 101.718C124.98 101.58 124.732 101.4 124.487 101.222C124.21 101.021 123.937 100.823 123.596 100.691C123.384 100.608 123.211 100.581 123.051 100.555C122.781 100.513 122.549 100.476 122.236 100.191C122.034 101.384 119.229 100.822 117.41 100.457C116.805 100.336 116.31 100.237 116.054 100.231C115.957 100.229 115.856 100.226 115.753 100.223C114.843 100.196 113.713 100.164 112.921 100.504C112.314 100.764 111.597 101.353 110.975 101.863C110.734 102.06 110.508 102.246 110.308 102.397C109.321 103.139 108.617 104.085 107.89 105.113C106.957 106.431 108.35 106.304 109.355 106.212C109.424 106.206 109.492 106.2 109.557 106.195C111.847 106 114.073 106.386 116.281 106.909C118.253 107.376 120.047 108.094 121.935 108.852C122.285 108.992 122.92 109.322 123.637 109.694C125.099 110.453 126.898 111.387 127.304 111.249C127.69 111.117 128.838 108.704 129.736 106.816Z" fill="black"/>
<path fill-rule="evenodd" clip-rule="evenodd" d="M142.534 91.9615C143.329 91.9209 144.121 92.0984 144.916 92.021C144.226 91.4198 143.535 90.8187 142.845 90.2176C142.54 90.7531 142.518 91.3623 142.534 91.9615ZM123.672 79.6025C121.615 79.6115 119.104 80.6451 117.675 82.1546C116.917 82.9546 116.292 84.029 115.651 84.9278C115.221 85.5309 114.802 86.1129 114.28 86.6429C113.52 87.4153 113.738 87.5918 114.594 88.1734C114.866 87.6653 116.303 84.9484 116.906 85.0706C117.822 85.2565 116.053 88.1262 115.86 88.4837C115.288 89.5415 114.364 91.019 114.779 92.1346C115.327 93.6073 114.533 94.4465 113.843 95.7014C114.567 95.7223 114.639 95.44 114.888 94.8223C115.209 94.0285 115.559 93.3654 116.236 92.8167C116.761 92.3917 117.62 92.2128 117.866 91.6996C118.171 91.0654 117.98 89.8131 118.005 89.1075C118.042 88.0353 118.045 85.5009 119.226 85.0245C120.464 84.5254 122.69 84.9957 123.9 85.3654C123.749 84.4206 123.272 83.8035 123.279 82.7535C123.286 81.6545 123.588 80.674 123.672 79.6025ZM107.864 97.1362C108.94 96.7954 109.96 96.4364 111.068 96.2042C112.227 95.961 112.304 95.6829 112.958 94.689C113.453 93.9356 114.054 93.3484 113.913 92.4257C113.823 91.8339 113.5 91.5456 113.597 90.88C113.657 90.4675 113.85 90.0171 113.989 89.6248C114.16 89.1435 114.513 88.5978 113.691 88.574C113.237 88.5607 113.215 88.8003 112.908 89.2023C112.341 89.945 111.688 90.6193 111.085 91.3317C110.037 92.5684 108.926 93.8843 107.757 95.029C106.469 96.2885 105.358 97.8076 104.526 99.4201C104.372 99.7179 103.438 101.472 103.836 101.816C104.202 102.132 106.239 101.395 106.61 101.309C108.213 100.937 110.032 100.804 111.546 100.128C112.318 99.7839 114.02 99.3729 114.63 98.8403C115.196 98.3451 115.171 97.1454 114.842 96.4475C113.922 97.0198 107.27 99.1793 107.864 97.1362ZM127.889 87.2931C128.963 86.3229 130.232 85.5446 131.559 84.9679C132.745 84.4521 134.218 83.8771 135.538 83.9667C137.182 84.0781 136.495 85.4026 136.49 86.5304C136.482 88.0271 135.826 90.1831 137.613 90.9596C138.196 88.8873 139.426 83.987 142.371 86.7023C143.124 84.7098 145.809 84.0354 147.7 83.6695C147.357 82.6628 146.316 81.7515 145.595 80.9959C144.692 80.0507 143.98 78.9429 143.075 78.0156C141.289 76.1842 138.053 76.7723 135.792 77.2289C135.037 77.381 132.849 77.5723 132.483 78.1267C132.254 78.4743 132.382 79.3237 132.212 79.7489C131.978 80.3345 131.578 80.8775 131.257 81.4184C130.085 83.3923 128.894 85.379 126.889 86.5093L127.889 87.2931ZM134.444 97.9271C133.383 98.334 132.603 99.0145 131.662 99.5875C130.522 100.282 129.184 100.933 128.161 101.791C127.786 102.105 127.576 102.647 127.059 102.682C126.609 102.713 125.924 102.191 125.525 102.008C124.857 101.701 124.218 101.236 123.546 100.962C122.993 100.737 122.749 100.783 122.271 100.346C122.003 101.942 117.127 100.45 116.104 100.426C115.157 100.403 113.859 100.516 112.978 100.896C112.139 101.258 111.482 102.056 110.764 102.599C109.779 103.345 108.84 104.099 108.115 105.13C107.12 106.545 108.621 106.144 109.621 106.059C111.906 105.864 114.128 106.408 116.33 106.933C118.298 107.402 120.242 107.965 122.127 108.726C123.187 109.154 124.302 109.547 125.299 110.104C125.824 110.397 126.676 111.115 127.279 110.908C127.832 110.719 128.383 109.134 128.718 108.5C129.369 107.272 130.054 106.063 130.726 104.847C131.996 102.548 133.254 100.269 134.444 97.9271ZM121.393 128.349C122.047 127.974 123.112 128.075 123.835 127.918C124.652 127.74 125.473 127.45 126.252 127.149C127.04 126.843 127.785 126.53 128.506 126.148C128.835 125.973 129.275 125.801 129.579 125.558C129.825 125.362 129.914 124.999 130.14 124.822C130.731 124.359 130.904 124.649 130.983 123.756C131.069 122.786 130.525 122.237 129.847 121.51C129.241 120.861 128.453 120.299 127.691 119.842C127.353 119.64 126.993 119.412 126.649 119.219C126.129 118.927 125.431 118.442 125.158 119.069C125.727 119.214 125.852 119.94 125.339 120.202C125.057 120.345 124.63 120.134 124.312 120.287C123.821 120.522 123.349 121.179 122.929 121.532C121.55 122.693 120.231 123.129 118.426 123.222C114.654 123.417 110.704 122.986 107.005 122.427C106.053 122.283 105.102 122.439 104.142 122.405C103.207 122.372 102.232 122.167 101.313 122.009C99.5423 121.705 97.6764 121.455 95.9336 121.007C93.8259 120.466 91.7109 119.766 89.732 118.859C87.8339 117.99 85.6884 116.553 83.5564 116.442C84.4662 117.333 85.8295 117.676 86.9239 118.263C87.8183 118.742 89.217 119.05 89.7822 119.839C90.15 120.354 90.3345 121.298 90.6125 121.901C90.9197 122.568 91.2033 123.245 91.4878 123.922C91.7736 124.604 92.0712 125.285 92.3033 125.987C92.447 126.422 92.5089 127.325 92.8483 127.622C93.3897 128.097 95.2015 128.308 95.9312 128.466C97.2934 128.761 98.8472 128.722 100.237 128.742C100.811 128.751 101.39 128.829 101.938 128.84C102.709 128.855 102.635 128.721 102.624 128.052C102.618 127.651 102.626 126.92 103.163 127.251C103.529 127.476 103.277 128.475 103.21 128.83C106.276 129.135 109.476 129.289 112.529 129.187C115.53 129.086 118.428 128.699 121.393 128.349ZM135.243 121.309C135.785 117.423 136.444 113.473 137.182 109.637C137.928 105.761 138.825 101.92 139.834 98.0589C139.167 97.8993 138.501 97.7403 137.835 97.581C137.81 98.3946 137.535 99.1014 137.417 99.9112C137.256 101.029 136.946 102.114 136.761 103.229C136.409 105.347 135.757 107.419 135.182 109.484C134.597 111.59 134.401 113.759 133.863 115.875C133.419 117.618 133.193 119.539 132.945 121.331C132.344 125.679 131.488 130.035 130.837 134.385C130.226 138.464 130.165 142.625 130.2 146.742C130.222 149.255 130.605 151.761 130.585 154.278C130.58 154.9 130.632 155.52 130.665 156.141C130.687 156.579 130.452 157.794 130.652 158.161C130.778 158.393 131.321 158.608 131.513 158.93C131.817 159.441 131.881 160.051 132.37 160.437C132.765 158.841 132.578 156.734 132.492 155.105C132.408 153.535 132.571 151.913 132.603 150.319C132.665 147.193 132.831 144.112 132.991 140.984C133.167 137.553 133.667 134.039 134.155 130.635C134.599 127.539 134.895 124.388 135.243 121.309ZM120.759 72.5767C120.545 72.5565 120.33 72.5367 120.115 72.5167C120.147 72.9689 120.052 73.7012 120.371 73.9371C120.612 74.1159 121.101 74.0571 121.394 74.1142C122.354 74.3018 123.466 74.4589 124.419 74.117C124.789 73.9842 124.551 73.7762 125.061 73.8626C125.675 73.967 125.451 74.0642 125.628 74.4471C125.765 74.7428 125.835 75.2459 125.99 75.6009C126.197 76.0757 126.618 76.9257 126.438 77.4742C126.263 78.0073 125.611 78.1684 125.334 78.7721C125.128 79.221 125.177 79.8735 125.07 80.3679C124.927 81.0273 124.746 81.6842 124.667 82.3557C124.566 83.2018 124.601 84.1946 125.649 84.3257C126.622 84.4478 127.317 84.1351 127.97 83.4265C129.216 82.0739 130.639 80.1645 131.371 78.4629C131.456 78.2642 131.667 77.9325 131.637 77.7196C131.579 77.2987 131.554 77.7248 131.42 77.4325C131.293 77.1529 131.093 76.8993 130.976 76.5892C130.553 75.475 130.253 74.307 130.084 73.1275C130.007 72.5931 129.981 72.0653 129.995 71.5257C129.999 71.3415 130.11 70.7884 130.044 70.6621C129.976 70.5343 129.626 70.4754 129.517 70.3485C129.314 70.1134 128.966 69.4495 128.742 69.2734C128.465 69.0571 127.848 69.2285 127.736 68.7982C127.556 68.1098 131.802 66.9884 129.818 66.0697C128.337 65.3838 126.066 68.8512 125.548 66.1227C125.459 65.6501 125.63 65.0086 125.422 64.5755C125.193 64.0968 124.569 63.9178 124.134 63.6849C123.578 63.3879 123.016 63.0826 122.476 62.7573C122.105 62.5344 121.571 61.9424 121.177 61.8881C121.332 62.6917 121.035 63.4882 121.03 64.2903C121.884 64.0591 122.472 64.0542 123.315 64.4653C123.717 64.6609 125.23 65.7713 124.463 66.3054C123.842 65.9383 123.178 65.6199 122.486 65.404C122.212 65.3188 121.872 65.2029 121.581 65.197C120.907 65.1834 121.002 65.2539 120.749 65.7623C120.505 66.252 120.557 67.5292 120.021 67.8419C119.467 68.1653 119.895 67.7126 119.422 67.8171C119.152 67.8769 118.858 68.0775 118.611 68.1907C118.949 68.5581 119.632 68.8934 119.857 69.3014C120.184 69.8962 120.071 71.1264 120.122 71.7771C120.55 71.6237 121.002 71.6175 121.436 71.5035C121.844 71.3962 122.411 70.9321 122.453 71.6145C122.501 72.3748 121.299 72.5767 120.759 72.5767ZM126.337 92.5962C126.371 91.9392 126.407 91.2823 126.48 90.6279C126.53 90.1885 126.947 88.9142 126.711 88.5282C126.455 88.1084 125.595 88.0817 125.181 87.9809C124.389 87.7876 123.628 87.6293 122.822 87.5017C122.081 87.3843 121.383 87.3596 120.636 87.3256C119.822 87.2889 119.621 87.0731 119.441 87.9693C119.3 88.6742 119.11 89.4082 119.084 90.1298C119.059 90.8071 119.264 91.3951 118.592 91.8515C120.066 91.8515 121.986 90.5392 123.331 91.7126C125.255 93.3907 121.907 93.8742 121.024 94.2446C121.758 94.6014 122.847 94.8815 123.193 95.6962C123.58 96.6095 123.018 96.9978 122.157 97.0709C122.238 97.4229 122.548 97.6515 122.64 98.0748C122.775 98.6953 122.337 98.4898 122.897 98.97C123.633 99.6018 125.15 100.024 126.054 100.427C126.266 100.522 126.48 100.61 126.697 100.693C127.035 100.995 127.285 100.937 127.447 100.521C127.91 100.228 128.323 99.5729 128.734 99.1921C129.649 98.3446 130.659 97.6011 131.746 96.9892C131.295 96.8025 130.756 97.2243 130.324 97.019C129.974 96.8531 130.106 96.551 129.897 96.325C129.98 96.0301 129.892 95.9223 129.631 96.0015C129.5 96.0154 129.379 95.9932 129.266 95.9353C129.048 95.6642 128.949 95.5754 128.935 95.1568C128.92 94.7128 129.177 94.556 129.275 94.2004C129.596 93.9818 129.589 93.767 129.254 93.5564C129.116 93.3309 129.04 93.0864 129.028 92.8225C128.964 91.8429 129.858 91.4481 130.54 90.93C129.319 90.7957 129.366 89.3637 130.211 88.7378C131.086 88.0887 132.94 88.3545 133.999 88.5009C134.219 88.531 134.814 88.8151 135.037 88.634C135.173 88.5231 135.077 87.5848 135.083 87.4192C135.097 87.0432 135.189 86.595 135.129 86.2209C135.004 85.4378 135.269 85.8321 134.705 85.8104C133.364 85.7584 131.655 86.9296 130.475 87.4818C129.153 88.1 128.304 88.195 128.291 89.7276C128.277 91.1787 127.87 92.6246 127.693 94.0528C127.615 94.6764 127.56 97.9165 126.418 96.7209C125.976 96.257 126.259 95.5439 126.292 94.9718C126.337 94.1848 126.31 93.3854 126.337 92.5962ZM52.5259 141.173C53.1792 141.289 54.243 140.914 54.9556 140.875C56.2015 140.807 57.4847 140.688 58.7054 140.429C59.6604 140.226 60.7487 140.047 61.2637 139.123C61.7242 138.297 61.8869 137.262 62.1348 136.36C62.2665 135.882 62.6064 135.187 62.6062 134.692C62.6061 134.048 62.5194 134.175 61.8479 133.823C60.9981 133.377 60.1712 132.756 59.2545 132.503C58.9772 132.448 58.6997 132.395 58.422 132.343C58.0628 132.135 57.8601 132.237 57.8131 132.65C57.4625 133.02 57.257 133.702 56.9628 134.134C56.2922 135.119 55.4958 135.791 54.4553 136.36C52.583 137.382 50.8384 138.172 48.8331 138.84C47.728 139.209 46.7089 139.726 45.6287 140.132C44.7633 140.457 43.5689 140.556 42.9041 141.281C42.1541 142.098 43.307 142.395 43.9478 142.948C44.4728 143.401 44.483 143.505 45.2013 143.285C45.7363 143.121 46.2107 142.808 46.7245 142.596C48.4847 141.869 50.615 141.385 52.5259 141.173ZM92.7514 154.138C92.0955 153.996 91.4394 153.854 90.7834 153.712C91.4284 154.917 92.7853 156.679 91.8115 158.073C91.4475 158.593 90.8422 158.742 90.3014 159.006C89.6469 159.326 89.0425 159.735 88.4237 160.116C85.8722 161.687 83.279 163.281 80.5905 164.629C81.4322 164.9 82.7262 165.088 83.5931 164.852C84.6025 164.576 85.5372 163.943 86.5734 163.666C88.4326 163.17 90.3895 162.747 92.2784 162.493C93.8223 162.285 97.687 162.755 97.4994 160.433C97.3211 158.229 96.0044 156.125 95.6125 153.946C94.6509 154.159 93.7337 154.122 92.7514 154.138ZM131.851 118.853C132.599 115.184 133.046 111.452 133.927 107.808C134.367 105.991 134.677 104.148 135.107 102.33C135.307 101.484 135.458 100.63 135.653 99.786C135.85 98.9314 136.275 98.1426 136.372 97.259C135.657 97.4359 135.492 99.0723 135.276 99.6879C134.878 100.817 134.445 101.903 133.935 102.984C133.123 104.703 132.262 106.361 131.346 108.027C130.381 109.785 129.362 111.475 128.156 113.08C127.759 113.608 127.222 114.021 126.966 114.599C126.565 115.509 126.396 116.594 126.012 117.541C126.282 117.678 126.98 117.712 127.312 117.778C127.928 117.899 128.36 118.007 128.951 118.3C129.994 118.817 130.87 119.429 131.567 120.357C131.742 119.881 131.787 119.358 131.851 118.853ZM102.789 146.852C102.777 143.318 102.727 139.753 102.785 136.245C102.801 135.271 102.88 134.22 103.021 133.254C103.11 132.646 103.632 131.355 103.289 131.063C102.995 130.814 101.448 130.978 101.068 130.969C100.331 130.952 99.597 130.92 98.8589 130.864C98.8589 132.174 99.3706 133.661 99.6084 134.957C99.83 136.166 100.012 137.381 100.195 138.595C100.591 141.224 100.704 143.89 101.134 146.526C101.523 148.916 102.037 151.297 102.32 153.687C102.476 154.999 102.79 156.236 103.035 157.547C103.162 158.231 103.628 161.047 104.214 161.324C104.338 160.314 103.832 159.094 103.741 158.073C103.648 157.018 103.575 155.956 103.404 154.896C103.203 153.652 103.102 152.376 103.025 151.116C102.978 150.345 102.964 149.577 102.897 148.806C102.849 148.247 102.637 147.4 102.789 146.852ZM121.207 99.5925C121.232 99.2076 120.235 99.2231 120.05 98.7807C119.674 97.8825 120.531 98.0442 121.059 97.9512C120.871 97.4517 117.35 97.6335 118.17 96.2851C118.739 95.3495 120.897 96.7815 121.474 95.8925C121.853 95.3085 120.821 95.2281 120.412 95.1696C119.796 95.0814 118.346 95.3665 118.394 94.5676C118.454 93.5639 121.274 92.871 122.065 92.5762C121.977 91.8889 118.583 92.8659 118.092 93.1445C116.981 93.7751 116.129 94.9067 115.966 96.1642C115.776 97.6273 116.518 98.7796 117.979 99.1387C118.589 99.2884 119.039 99.3051 119.603 99.5301C119.974 99.6781 121.174 100.047 121.429 99.6737C121.355 99.6467 121.281 99.6195 121.207 99.5925ZM141.129 90.4917C141.185 89.8668 141.711 88.6906 141.105 88.2801C140.257 87.7056 139.906 88.6523 139.714 89.221C139.479 89.9154 138.491 91.6151 139.355 92.0478C139.555 92.1484 140.508 92.0314 140.676 91.965C141.144 92.0868 141.295 91.9117 141.129 91.4389V90.4917ZM120.432 140.95C120.379 139.243 121.144 137.19 121.577 135.517C122.068 133.622 122.327 131.689 122.848 129.815C122.269 129.884 121.685 129.941 121.112 130.057C120.332 130.216 120.318 130.191 120.374 130.957C120.458 132.106 120.348 133.233 120.289 134.382C120.17 136.683 120.46 139.022 120.267 141.308C120.439 141.352 120.494 141.232 120.432 140.95ZM142.038 96.194C143.913 96.4811 145.71 97.0754 147.416 97.874C148.356 98.3142 149.392 98.7873 150.443 98.9631C151.611 99.1585 152.849 99.0668 154.041 99.1421C154.462 99.1687 155.567 99.3729 155.976 99.1257C156.382 98.8807 156.351 98.4657 156.37 97.9709C156.419 96.6982 155.843 95.4521 155.325 94.3103C154.88 93.3306 154.545 92.5826 153.855 91.74C152.97 90.6576 152.198 89.4896 151.369 88.36C150.744 87.5085 150.112 86.6692 149.475 85.8187C149.019 85.2096 149.041 85.0001 148.353 85.0682C147.677 85.1354 146.996 85.5354 146.358 85.7473C145.412 86.062 144.267 86.2346 143.404 86.7378C142.847 87.0631 142.822 87.1229 142.828 87.6906C142.834 88.2193 143.005 88.8643 143.321 89.2779C143.978 90.1367 145.067 90.5912 146.002 91.0196C146.543 91.2673 147.01 91.6189 147.492 91.9606C148.01 92.329 149.057 92.5461 149.453 92.966C150.609 94.1892 148.505 93.9475 147.918 93.9106C146.65 93.8307 145.388 93.8429 144.11 93.842C142.716 93.841 141.332 93.7762 139.958 93.8215C139.152 93.8481 138.228 93.4396 137.707 92.7589C137.454 92.429 137.356 92.1173 137.025 91.7751C136.592 91.3271 136.216 90.8551 135.689 90.5084C134.828 89.941 133.262 89.6201 132.236 89.8318C132.603 89.8831 134.331 90.4712 133.57 91.2104C133.478 91.3004 132.367 91.3593 132.125 91.4703C131.689 91.6704 131.14 91.9614 130.884 92.384C131.629 92.2593 134.389 92.115 132.981 93.5432C132.635 93.8939 131.643 94.2437 132.487 94.6165C132.681 94.7021 133.07 94.5809 133.319 94.6581C133.69 94.7731 133.994 95.0804 134.342 95.2443C135.328 95.7096 136.688 95.9965 137.717 95.8946C139.141 95.7534 140.624 96.0076 142.038 96.194ZM104.288 139.229C104.337 141.281 104.263 143.345 104.306 145.406C104.353 147.607 104.636 149.764 104.77 151.943C104.891 153.896 105.155 155.812 105.369 157.755C105.492 158.875 105.634 159.945 105.824 161.057C106.001 162.096 106.031 163.012 104.788 163.292C102.412 163.827 102.043 160.408 101.584 158.967C100.898 156.818 100.458 154.561 100.119 152.332C99.4864 148.182 98.6455 144.09 98.3173 139.904C98.1153 137.327 97.8223 134.776 97.6561 132.201C97.6234 131.696 97.7522 130.919 97.309 130.694C97.0425 130.559 96.3084 130.558 95.972 130.46C95.0347 130.187 94.1701 129.786 93.2556 129.369C93.9047 132.763 94.119 136.14 94.6059 139.564C94.8642 141.38 95.3586 143.263 95.787 145.051C96.2309 146.903 96.3295 148.898 96.8415 150.711C97.0672 151.51 97.2581 151.835 96.9308 152.655C96.5292 153.662 96.7956 153.902 97.2992 154.891C98.2256 156.709 98.9328 158.855 98.7758 160.906C98.6476 162.58 97.3826 163.457 95.8155 163.908C93.8551 164.473 91.8025 164.406 89.8303 165.048C88.1122 165.607 86.3664 166.02 84.6978 166.757C84.025 167.055 83.3858 167.408 82.6387 167.462C81.614 167.537 80.9231 166.942 79.9555 166.818C79.3506 166.741 78.465 167.03 78.1165 166.396C77.8403 165.893 78.1528 164.796 78.4997 164.392C79.4737 163.254 81.4245 162.264 82.7381 161.593C84.2522 160.819 85.7172 159.851 87.12 158.853C87.9703 158.248 88.8373 157.667 89.687 157.061C90.249 156.66 90.4626 156.657 90.4053 156.02C90.3595 155.512 90.1305 155.018 90.0903 154.498C90.0597 154.099 90.1994 153.556 90.0109 153.295C89.8723 153.104 89.352 152.968 89.1475 152.823C88.3994 152.292 88.2294 151.636 87.8897 150.83C87.118 148.997 86.2314 147.217 85.4862 145.369C83.8862 141.404 82.91 137.234 81.5836 133.187C80.2286 129.053 79.0169 124.713 78.2706 120.424C77.272 120.728 76.3295 122.072 75.5342 122.738C74.4598 123.637 73.3589 124.506 72.3053 125.43C70.5783 126.945 68.8295 128.417 67.4023 130.231C66.7147 131.105 66.1517 132.045 65.5292 132.962C65.1697 133.493 64.8344 134.093 64.445 134.597C64.3825 134.678 64.3806 134.844 64.3133 134.913C64.165 135.065 63.8817 134.863 63.7867 134.963C63.1998 135.576 63.2075 137.319 63.0247 138.128C62.7726 139.244 62.4897 140.527 61.6184 141.296C60.2725 142.484 57.7905 142.668 56.0872 142.73C53.9012 142.809 51.7808 143.418 49.7069 144.072C48.7395 144.377 47.7975 144.734 46.8265 145.031C46.2681 145.201 45.631 145.541 45.0346 145.476C44.3154 145.397 43.7475 144.792 43.2207 144.342C42.3779 143.623 41.5976 142.913 41.6255 141.733C41.6552 140.483 42.3321 139.54 43.3985 138.919C45.4603 137.719 47.7662 136.95 49.9886 136.12C50.8401 135.802 51.5692 135.451 52.3834 135.023C53.534 134.418 54.8584 133.924 55.8794 133.125C56.1803 132.889 57.2865 132.167 57.3808 131.795C57.3931 131.746 57.1167 131.178 57.1154 131.088C57.1128 130.856 57.2501 130.604 57.3347 130.406C57.8664 129.156 58.7583 127.952 59.4401 126.773C60.6889 124.614 61.9425 122.444 63.3903 120.413C66.2773 116.364 69.5204 112.4 73.0208 108.866C74.7272 107.143 76.2017 105.189 77.9322 103.49C78.6178 102.817 79.3415 102.269 80.1862 101.832C81.1279 101.345 82.185 101.249 83.2644 101.101C85.88 100.741 88.0644 101.514 90.52 102.188C92.8415 102.824 95.1656 103.361 97.5001 104.024C100.064 104.752 102.601 105.45 105.157 106.244C106.523 106.668 107.927 106.928 109.299 107.335C109.96 107.53 112.458 108.757 113.008 108.354C111.273 107.54 109.496 106.798 107.639 106.306C107.093 106.162 106.743 106.322 106.764 105.694C106.775 105.352 107.16 104.889 107.298 104.607C107.63 103.933 108.005 103.273 108.33 102.597C107.153 102.931 103.99 104.087 103.103 102.892C102.175 101.64 102.95 99.1865 103.531 97.9612C105.05 94.7626 107.632 92.0934 110.148 89.6821C110.693 89.1609 111.866 88.4801 112.156 87.816C112.244 87.6142 112.052 87.3176 112.251 87.0554C112.37 86.8993 112.845 86.7928 113.035 86.6246C113.727 86.0121 114.279 84.7234 114.757 83.9204C115.258 83.0795 115.709 82.1689 116.338 81.4143C117.367 80.1806 118.43 78.8728 120.096 78.5842C120.914 78.4428 121.782 78.5182 122.565 78.2359C123.512 77.8945 124.412 77.3567 125.369 77.0031C125.132 76.5153 124.939 75.7393 124.479 75.686C124.036 75.6346 123.385 76.0157 122.878 76.0129C122.137 76.0089 121.505 75.8904 120.789 75.7492C119.998 75.5926 119.737 75.621 119.449 74.7625C119.146 73.8631 119.222 72.8184 119.225 71.8842C119.226 71.4278 119.317 70.861 119.278 70.4129C119.219 69.7378 119.088 69.7118 118.559 69.2825C117.898 68.746 117.082 68.0362 117.892 67.1041C118.33 66.6005 119.23 66.9921 119.617 66.451C120.012 65.8998 119.993 64.5152 120.113 63.8677C118.896 64.4661 119.342 62.2293 119.342 61.6911C119.342 60.908 118.817 59.4996 119.573 58.848C119.924 58.5455 120.185 58.7958 120.586 58.6219C121.044 58.4235 121.332 57.9032 121.82 57.7015C122.788 57.3004 123.777 57.7834 124.772 57.7036C125.913 57.6123 127.033 57.4359 128.18 57.619C128.724 57.7054 128.952 57.9118 129.412 58.1432C129.854 58.3658 130.303 58.4267 130.783 58.5699C131.211 58.6974 131.585 58.7618 131.874 59.1342C132.102 59.4289 132.009 59.9244 132.24 60.1784C132.467 60.4287 132.917 60.3923 133.188 60.6895C133.448 60.9747 133.604 61.4462 133.739 61.8011C133.922 62.2792 133.943 62.4588 134.265 62.8414C134.545 63.1753 134.949 63.4439 135.183 63.8247C135.735 64.7226 135.749 66.021 135.573 67.031C135.513 67.375 135.014 68.264 135.092 68.5567C135.167 68.8353 135.634 68.762 135.846 68.9382C136.029 69.0904 136.19 69.7687 136.334 69.8101C136.645 69.8995 137.03 69.284 137.266 69.1917C137.676 69.0312 137.848 68.8667 138.075 69.4715C138.244 69.9203 138.009 70.5295 137.886 70.9578C137.728 71.5031 137.555 72.1598 137.138 72.5721C136.648 73.0568 136.256 72.7918 135.716 73.0529C134.906 73.4442 135.145 74.6676 134.149 75.0173C133.199 75.3504 132.153 74.3023 131.435 73.8204C131.584 74.9901 132.144 76.1173 131.875 77.316C134.059 76.4604 136.219 75.246 138.599 74.9785C139.812 74.842 141.038 74.6804 142.184 75.1842C143.525 75.7739 144.347 77.0746 145.254 78.1554C146.96 80.1867 148.71 82.1609 150.347 84.2576C151.849 86.1809 153.115 88.4093 154.768 90.2103C156.444 92.0364 157.709 94.9993 157.526 97.5281C157.509 97.7564 157.332 98.275 157.36 98.521C157.382 98.7096 157.553 98.9487 157.55 99.1007C157.541 99.6125 157.372 99.9071 156.884 100.191C156.038 100.683 154.779 100.933 153.823 101.055C152.553 101.217 150.998 101.235 149.728 101.061C148.418 100.882 147.267 100.149 146.062 99.7057C145.005 99.3168 143.944 99.074 142.833 98.8259C142.221 98.689 141.543 98.3101 141.164 98.6768C140.817 99.0139 140.744 100.743 140.663 101.203C139.785 106.187 138.741 111.003 137.816 115.961C136.768 121.582 136.051 127.2 135.323 132.869C134.66 138.021 134.444 143.232 134.295 148.38C134.225 150.836 134.215 153.265 134.23 155.722C134.238 157.099 134.926 161.692 132.886 161.868C131.687 161.972 130.728 160.253 130.407 159.316C129.924 157.907 129.672 156.391 129.595 154.911C129.44 151.916 129.236 148.919 129.115 145.922C128.984 142.676 129.15 139.37 129.417 136.135C129.686 132.877 130.363 129.668 130.57 126.406C129.947 127.294 129.748 127.461 128.711 127.848C127.626 128.254 126.582 128.733 125.487 129.111C125.114 129.239 124.533 129.319 124.227 129.53C123.664 129.918 124.034 129.478 123.854 130.233C123.662 131.04 123.625 132.009 123.574 132.839C123.335 136.731 122.256 140.595 121.759 144.467C121.639 145.402 121.81 149.37 120.201 148.119C118.962 147.156 118.987 144.131 118.811 142.714C118.576 140.825 118.707 138.883 118.744 136.983C118.786 134.819 118.823 132.549 119.339 130.435C118.415 130.277 117.13 130.708 116.2 130.781C115.395 130.843 114.592 130.883 113.791 130.927C111.882 131.032 109.915 131.116 107.973 131.078C107.619 131.071 105.31 130.748 105.015 131.009C104.919 131.093 104.889 132.258 104.872 132.4C104.804 132.935 104.711 133.469 104.643 134.002C104.423 135.702 104.225 137.529 104.288 139.229Z" fill="black"/>
<path fill-rule="evenodd" clip-rule="evenodd" d="M138.585 155.393C140.043 155.963 141.589 156.17 143.059 156.689C144.373 157.153 145.593 157.776 146.887 158.248C146.963 157.647 147.003 156.631 146.781 156.065C146.468 155.264 145.642 155.245 144.829 154.96C142.85 154.265 140.768 154.119 138.803 153.308C139.14 153.955 138.989 154.813 138.585 155.393ZM163.743 153.299C160.595 153.391 157.588 154.124 154.485 154.577C152.976 154.797 151.465 154.994 149.954 155.199C149.373 155.278 148.313 155.185 147.89 155.689C147.54 156.106 147.924 157.529 147.768 158.14C148.405 158.187 149.534 157.593 150.225 157.494C151.3 157.341 152.361 157.127 153.447 157.059C155.168 156.951 156.858 156.858 158.576 156.667C160.323 156.472 162.013 156.11 163.774 155.978C164.63 155.914 164.974 156.074 165.024 155.171C165.044 154.817 165.093 154.226 164.993 153.878C165.152 153.449 165.011 153.241 164.572 153.254C164.293 153.222 164.017 153.237 163.743 153.299ZM157.655 150.415C158.507 150.335 159.361 150.221 160.215 150.173C160.388 150.163 161.265 150.216 161.409 150.055C161.612 149.828 161.385 148.995 161.348 148.738C161.222 147.862 161.082 147.353 160.127 147.351C159.32 147.349 158.485 147.519 157.682 147.598C154.037 147.955 150.409 148.106 146.804 148.785C147.023 149.719 147.272 150.683 147.01 151.639C148.739 151.728 150.638 151.396 152.329 151.054C154.056 150.705 155.89 150.532 157.655 150.415ZM151.885 141.616C150.582 141.621 149.206 142.195 147.92 142.067C147.901 142.306 148.313 142.108 148.426 142.332C148.669 142.332 148.753 142.411 148.679 142.57C148.684 142.678 148.629 142.741 148.514 142.759C148.457 142.764 148.4 142.769 148.344 142.774C148.095 142.782 148.054 142.949 148.222 143.277C148.15 143.683 148.258 144.199 148.273 144.606C150.583 144.292 152.827 143.965 155.153 143.824C156.252 143.758 157.349 143.758 158.446 143.668C159.653 143.569 160.97 143.782 162.15 143.556C162.78 143.435 162.714 143.443 162.668 142.623C162.64 142.125 162.651 141.533 162.245 141.17C161.567 140.563 160.025 140.914 159.214 140.935C156.774 141 154.293 141.226 151.885 141.616ZM153.218 153.328C156.708 153.011 160.171 152.317 163.68 152.317C163.432 152.069 162.892 152.006 162.583 151.87C162.231 151.716 161.898 151.388 161.554 151.253C160.864 150.983 160.161 151.358 159.452 151.521C157.741 151.912 155.986 151.926 154.272 152.31C152.501 152.707 150.706 153.073 148.902 153.275C148.043 153.371 147.121 153.566 146.273 153.339C146.204 153.29 146.134 153.241 146.066 153.192C145.991 152.876 145.785 152.791 145.448 152.938C145.019 152.857 144.472 152.962 144.04 152.973C144.023 153.145 145.619 153.687 145.923 153.821C146.656 154.143 147.153 154.38 147.936 154.241C149.699 153.93 151.433 153.558 153.218 153.328ZM140.943 143.126C141.08 143.658 141.652 143.416 142.145 143.475C142.807 143.553 143.465 143.781 144.106 143.953C145.27 144.266 146.434 144.575 147.593 144.905C147.548 144.437 147.651 143.372 147.404 142.956C147.144 142.521 145.914 142.33 145.341 142.197C143.896 141.863 142.353 142.053 140.886 142.124C140.912 142.458 140.931 142.791 140.943 143.126ZM154.818 146.452C156.188 146.336 157.56 146.246 158.935 146.197C160.506 146.142 159.364 145.891 159.331 144.933C157.265 145.262 155.182 145.327 153.123 145.609C151.417 145.843 149.385 146.452 147.646 146.125C146.825 145.97 145.987 145.911 145.114 145.823C144.291 145.741 143.514 145.358 142.7 145.262C141.787 145.155 140.854 145.668 139.945 145.804C139.56 145.862 139.471 146.123 139.289 145.659C139.101 145.178 139.641 144.786 139.853 144.498C140.102 144.162 139.998 144.708 140.136 144.183C140.175 144.036 140.07 143.667 140.051 143.509C140.002 143.109 139.877 142.674 139.857 142.275C139.839 141.908 139.836 141.348 140.234 141.134C140.477 141.003 140.649 141.194 140.861 141.157C142.515 140.869 144.46 140.846 146.138 141.123C147.956 141.424 149.521 140.628 151.313 140.305C153.416 139.926 155.54 139.869 157.661 139.709C159.474 139.572 162.787 138.863 163.478 141.179C163.673 141.835 163.958 143.641 163.432 144.2C162.741 144.933 161.143 144.699 160.25 144.89C160.383 145.269 160.781 145.528 160.643 145.98C161.895 146.039 162.116 147.221 162.312 148.325C162.515 149.467 162.119 149.92 163.21 150.515C164.731 151.343 166.342 152.18 166.312 154.153C166.297 155.146 166.186 156.642 165.167 157.157C164.171 157.66 162.548 157.575 161.45 157.758C159.323 158.112 157.188 158.528 155.049 158.74C152.77 158.967 150.454 159.153 148.171 159.254C146.928 159.309 145.854 159.497 144.653 159.078C143.472 158.667 142.317 158.367 141.099 158.061C139.896 157.76 136.214 157.354 137.287 155.297C137.459 154.968 138.046 154.706 138.14 154.395C138.293 153.893 137.777 153.502 137.798 153.048C137.838 152.218 138.774 152.114 139.421 152.114C138.313 151.421 139.797 150.6 139.788 150.012C139.772 148.975 138.483 148.302 138.41 147.433C138.233 145.318 144.942 147.52 145.974 147.978C145.18 149.156 141.492 148.136 140.394 147.958C140.544 148.351 140.687 148.705 140.73 149.108C140.765 149.436 140.64 149.812 140.755 150.142C140.936 150.665 140.93 150.565 141.571 150.707C142.046 150.812 142.515 150.934 142.989 151.046C143.715 151.217 144.859 151.677 145.579 151.652C146.211 151.63 146.086 151.826 146.202 151.125C146.264 150.748 146.158 150.347 146.094 149.977C145.961 149.203 145.767 148.471 146.443 147.915C147.088 147.386 148.447 147.133 149.237 146.947C150.992 146.532 153.017 146.431 154.818 146.452Z" fill="black"/>
<path fill-rule="evenodd" clip-rule="evenodd" d="M163.168 133.24C161.262 132.921 159.326 132.842 157.398 132.939C157.502 133.416 157.607 133.893 157.711 134.37C159.518 133.905 161.35 133.632 163.168 133.24ZM147.671 136.941C146.907 136.885 147.439 137.227 147.628 137.727C147.86 138.342 147.81 139.119 147.863 139.766C150.099 138.913 152.701 138.414 155.078 138.127C156.206 137.991 157.35 137.952 158.484 137.894C158.819 137.877 160.029 138.017 160.274 137.792C160.456 137.624 160.329 136.699 160.154 136.495C159.202 135.386 155.524 136.343 154.193 136.443C152.011 136.606 149.869 136.996 147.671 136.941ZM150.847 133.969C152.827 134.159 154.739 134.141 156.719 134.438C156.569 133.179 156.749 132.858 155.321 132.791C154.048 132.731 152.78 132.683 151.514 132.684C148.666 132.686 145.825 132.631 142.973 132.631V133.91C145.61 133.64 148.205 134.128 150.847 133.969ZM141.326 138.672C142.576 138.667 143.757 139.139 145.007 139.261C145.755 139.334 145.52 139.427 146.038 139.802C146.847 140.387 147.079 140.076 146.978 139.281C146.635 136.592 143.23 137.195 141.268 137.045C141.397 137.686 141.101 138.23 140.664 138.672H141.326ZM154.833 135.22C153.035 135.249 151.236 135.351 149.451 135.314C148.652 135.297 147.617 135.139 146.834 135.275C146.261 135.375 145.781 135.667 145.152 135.776C146.076 136.273 146.545 135.937 147.516 135.824C148.487 135.711 149.472 135.713 150.446 135.654C152.047 135.557 153.753 135.174 155.33 135.278C155.359 135.056 155.193 135.036 154.833 135.22ZM140.577 141.044C139.752 141.042 140.887 140.104 141.036 140.011C140.123 140.011 139.902 139.464 140.167 138.584C140.416 137.755 140.6 138.009 139.973 137.319C139.501 136.799 139.43 136.416 139.986 135.836C140.552 135.245 141.699 135.412 142.201 134.924C143.055 134.094 141.953 132.44 143.136 131.804C143.937 131.374 145.226 131.427 146.11 131.337C146.963 131.249 147.847 131.232 148.707 131.22C150.58 131.195 152.526 131.509 154.391 131.682C155.071 131.745 155.836 132.019 156.506 132.02C157.189 132.021 157.905 131.868 158.61 131.886C159.43 131.907 160.22 131.846 161.066 131.981C161.714 132.084 163.227 132.138 163.722 132.62C165.373 134.225 161.459 134.962 160.786 135.143C161.471 135.894 161.442 136.886 161.339 137.831C161.665 137.831 162.228 137.689 162.397 138.055C162.606 138.509 161.83 138.627 161.647 138.68C160.591 138.985 159.355 138.902 158.267 139.013C156.091 139.234 153.942 139.362 151.789 139.774C150.74 139.975 149.697 140.223 148.649 140.419C148.468 140.453 148.286 140.48 148.103 140.5C147.822 140.476 147.732 140.652 147.83 141.029C147.539 141.171 146.454 140.817 146.119 140.763C144.198 140.451 142.48 140.581 140.577 141.044Z" fill="black"/>
<path fill-rule="evenodd" clip-rule="evenodd" d="M179.361 159.695C178.123 160.669 176.971 161.589 175.63 162.436C176.578 162.407 179.732 160.894 179.361 159.695ZM178.878 158.106C178.202 157.525 177.53 157.584 176.693 157.408C175.922 157.246 175.174 156.967 174.404 156.781C173.801 156.635 173.204 156.438 172.602 156.3C171.753 156.105 171.669 156.32 170.888 156.764C168.118 158.343 165.019 159.429 162.101 160.71C162.958 161.464 164.885 161.497 165.955 161.737C166.737 161.912 167.481 162.152 168.229 162.43C168.927 162.689 170.05 163.284 170.785 163.304C171.405 163.321 171.91 162.71 172.444 162.381C173.147 161.948 173.847 161.523 174.555 161.101C176.054 160.208 177.455 159.113 178.878 158.106ZM166.361 164.5C166.041 164.192 165.078 164.205 164.677 164.111C163.888 163.927 163.11 163.735 162.309 163.597C161.011 163.372 158.959 163.271 158.818 161.587C158.701 160.186 160.392 159.854 161.382 159.38C162.87 158.666 164.388 158.008 165.914 157.378C167.344 156.789 168.796 156.29 170.252 155.78C170.536 155.681 170.767 155.695 170.999 155.467C171.182 155.288 171.125 154.939 171.326 154.752C171.785 154.322 172.381 154.548 172.932 154.659C174.185 154.908 175.486 155.237 176.681 155.7C177.922 156.182 179.033 156.282 179.331 157.69C179.966 157.392 180.443 157.349 180.367 158.224C180.345 158.481 180.158 158.761 180.113 159.026C180.047 159.417 180.163 159.829 180.097 160.221C179.86 161.646 177.938 162.702 176.748 163.261C175.279 163.951 173.385 164.971 171.745 165.105C169.999 165.249 168.095 164.563 166.361 164.5Z" fill="black"/>
<path fill-rule="evenodd" clip-rule="evenodd" d="M144.125 140.854C143.604 140.857 143.083 140.861 142.562 140.864C143.082 140.766 143.603 140.765 144.125 140.854Z" fill="black"/>
<path fill-rule="evenodd" clip-rule="evenodd" d="M113.656 85.75C113.5 86.0103 113.344 86.2706 113.187 86.5312C113.241 86.1956 113.36 85.908 113.656 85.75Z" fill="black"/>
<path fill-rule="evenodd" clip-rule="evenodd" d="M144.125 148.32C144.438 148.323 144.751 148.325 145.062 148.328C144.749 148.326 144.437 148.323 144.125 148.32Z" fill="black"/>
<path fill-rule="evenodd" clip-rule="evenodd" d="M145.062 140.86C144.75 140.857 144.437 140.854 144.125 140.851C144.438 140.766 144.751 140.769 145.062 140.86Z" fill="black"/>
<path fill-rule="evenodd" clip-rule="evenodd" d="M157.498 96.5312C157.489 96.2186 157.48 95.9059 157.471 95.5938C157.48 95.9066 157.489 96.2188 157.498 96.5312Z" fill="black"/>
<path fill-rule="evenodd" clip-rule="evenodd" d="M104.369 143.719C104.363 143.458 104.356 143.198 104.35 142.938C104.356 143.198 104.363 143.458 104.369 143.719Z" fill="black"/>
<path fill-rule="evenodd" clip-rule="evenodd" d="M140.844 74.8594C140.583 74.8783 140.323 74.897 140.062 74.9159C140.323 74.897 140.583 74.8783 140.844 74.8594Z" fill="black"/>
<path fill-rule="evenodd" clip-rule="evenodd" d="M134.215 151.219C134.207 151.01 134.199 150.801 134.191 150.594C134.199 150.803 134.207 151.011 134.215 151.219Z" fill="black"/>
<path fill-rule="evenodd" clip-rule="evenodd" d="M134.524 143.25C134.518 143.042 134.513 142.833 134.507 142.625C134.513 142.833 134.518 143.042 134.524 143.25Z" fill="black"/>
<path fill-rule="evenodd" clip-rule="evenodd" d="M129.192 146.844C129.199 147.052 129.207 147.261 129.214 147.469C129.207 147.26 129.199 147.052 129.192 146.844Z" fill="black"/>
<path fill-rule="evenodd" clip-rule="evenodd" d="M114.125 130.831C114.282 130.829 114.438 130.826 114.594 130.824C114.436 130.826 114.281 130.829 114.125 130.831Z" fill="black"/>
<path fill-rule="evenodd" clip-rule="evenodd" d="M159.437 138.962C159.594 138.955 159.751 138.948 159.906 138.941C159.749 138.948 159.593 138.955 159.437 138.962Z" fill="black"/>
<path fill-rule="evenodd" clip-rule="evenodd" d="M129.502 151.844C129.511 152.052 129.52 152.261 129.529 152.469C129.52 152.26 129.511 152.052 129.502 151.844Z" fill="black"/>
<path fill-rule="evenodd" clip-rule="evenodd" d="M146.25 150.75C146.24 150.959 146.229 151.167 146.219 151.375C146.229 151.166 146.24 150.958 146.25 150.75Z" fill="black"/>
<path fill-rule="evenodd" clip-rule="evenodd" d="M128.241 57.6458C128.02 57.6177 127.8 57.5898 127.579 57.5617C127.798 57.6123 128.038 57.4246 128.241 57.6458Z" fill="black"/>
<path fill-rule="evenodd" clip-rule="evenodd" d="M118.743 137.781C118.737 137.99 118.731 138.198 118.725 138.406C118.731 138.197 118.737 137.989 118.743 137.781Z" fill="black"/>
<path fill-rule="evenodd" clip-rule="evenodd" d="M105.313 156.844C105.302 156.635 105.291 156.427 105.281 156.219C105.291 156.427 105.302 156.635 105.313 156.844Z" fill="black"/>
<path fill-rule="evenodd" clip-rule="evenodd" d="M155.844 139.268C156.001 139.264 156.157 139.261 156.312 139.258C156.155 139.261 155.999 139.264 155.844 139.268Z" fill="black"/>
<path fill-rule="evenodd" clip-rule="evenodd" d="M102.795 101.375C102.796 101.584 102.798 101.792 102.798 102C102.797 101.791 102.796 101.583 102.795 101.375Z" fill="black"/>
<path fill-rule="evenodd" clip-rule="evenodd" d="M99.5168 148.25C99.5162 148.459 99.5154 148.668 99.5143 148.875C99.5149 148.666 99.5158 148.458 99.5168 148.25Z" fill="black"/>
<path fill-rule="evenodd" clip-rule="evenodd" d="M138.46 147C138.454 147.209 138.449 147.417 138.443 147.625C138.357 147.411 138.367 147.203 138.46 147Z" fill="black"/>
<path fill-rule="evenodd" clip-rule="evenodd" d="M134.362 146.062C134.36 145.854 134.358 145.645 134.357 145.438C134.358 145.647 134.36 145.854 134.362 146.062Z" fill="black"/>
<path fill-rule="evenodd" clip-rule="evenodd" d="M166.312 164.57C166.469 164.575 166.626 164.579 166.781 164.583C166.624 164.579 166.468 164.575 166.312 164.57Z" fill="black"/>
<path fill-rule="evenodd" clip-rule="evenodd" d="M160.687 144.736C160.792 144.734 160.897 144.732 161 144.73C160.895 144.732 160.791 144.734 160.687 144.736Z" fill="black"/>
<path fill-rule="evenodd" clip-rule="evenodd" d="M95.9311 146.219C95.9249 146.062 95.9184 145.906 95.9124 145.75C95.9188 145.907 95.925 146.063 95.9311 146.219Z" fill="black"/>
<path fill-rule="evenodd" clip-rule="evenodd" d="M159.906 146.098C159.77 146.235 159.596 146.154 159.437 146.163C159.594 146.141 159.75 146.119 159.906 146.098Z" fill="black"/>
<path fill-rule="evenodd" clip-rule="evenodd" d="M141.312 141.098C141.106 141.195 140.898 141.209 140.687 141.104C140.896 141.102 141.104 141.1 141.312 141.098Z" fill="black"/>
<path fill-rule="evenodd" clip-rule="evenodd" d="M154.906 146.455C154.698 146.453 154.489 146.451 154.281 146.449C154.49 146.451 154.698 146.453 154.906 146.455Z" fill="black"/>
<path fill-rule="evenodd" clip-rule="evenodd" d="M98.4278 140.281C98.4241 140.438 98.4199 140.594 98.4156 140.75C98.4196 140.593 98.4236 140.437 98.4278 140.281Z" fill="black"/>
<path fill-rule="evenodd" clip-rule="evenodd" d="M134.347 148.719C134.355 148.562 134.363 148.406 134.371 148.25C134.363 148.407 134.355 148.563 134.347 148.719Z" fill="black"/>
<path fill-rule="evenodd" clip-rule="evenodd" d="M155.844 139.707C155.635 139.725 155.427 139.742 155.219 139.76C155.427 139.742 155.635 139.725 155.844 139.707Z" fill="black"/>
<path fill-rule="evenodd" clip-rule="evenodd" d="M104.366 139.188C104.361 139.031 104.357 138.874 104.353 138.719C104.357 138.876 104.361 139.032 104.366 139.188Z" fill="black"/>
<path fill-rule="evenodd" clip-rule="evenodd" d="M130.471 127.156C130.459 127.313 130.447 127.469 130.435 127.625C130.447 127.468 130.459 127.312 130.471 127.156Z" fill="black"/>
<path fill-rule="evenodd" clip-rule="evenodd" d="M158.969 131.884C158.76 131.992 158.552 131.978 158.344 131.883C158.552 131.883 158.76 131.884 158.969 131.884Z" fill="black"/>
<path fill-rule="evenodd" clip-rule="evenodd" d="M134.217 153.562C134.207 153.406 134.198 153.25 134.189 153.094C134.198 153.25 134.207 153.406 134.217 153.562Z" fill="black"/>
<path fill-rule="evenodd" clip-rule="evenodd" d="M134.213 154.812C134.206 154.656 134.2 154.5 134.193 154.344C134.2 154.5 134.206 154.656 134.213 154.812Z" fill="black"/>
<path fill-rule="evenodd" clip-rule="evenodd" d="M104.668 134.188C104.671 134.031 104.673 133.874 104.675 133.719C104.673 133.876 104.671 134.031 104.668 134.188Z" fill="black"/>
<path fill-rule="evenodd" clip-rule="evenodd" d="M149.125 159.11C149.229 159.107 149.334 159.104 149.437 159.102C149.332 159.105 149.229 159.107 149.125 159.11Z" fill="black"/>
<path fill-rule="evenodd" clip-rule="evenodd" d="M98.7469 160.438C98.7384 160.281 98.73 160.125 98.7216 159.969C98.7302 160.125 98.7384 160.281 98.7469 160.438Z" fill="black"/>
<path fill-rule="evenodd" clip-rule="evenodd" d="M132.562 161.762C132.667 161.764 132.772 161.766 132.875 161.768C132.77 161.766 132.666 161.764 132.562 161.762Z" fill="black"/>
<path fill-rule="evenodd" clip-rule="evenodd" d="M132.627 148.406C132.636 147.937 132.645 147.469 132.654 147C132.645 147.469 132.636 147.938 132.627 148.406Z" fill="black"/>
<path fill-rule="evenodd" clip-rule="evenodd" d="M120.445 131.219C120.45 131.584 120.455 131.948 120.461 132.312C120.456 131.947 120.45 131.583 120.445 131.219Z" fill="black"/>
<path fill-rule="evenodd" clip-rule="evenodd" d="M93.4999 154.102C93.2391 154.105 92.9778 154.108 92.7186 154.111C92.9802 154.108 93.24 154.105 93.4999 154.102Z" fill="black"/>
<path fill-rule="evenodd" clip-rule="evenodd" d="M114.906 123.02C114.645 123.016 114.384 123.012 114.125 123.008C114.387 123.012 114.646 123.016 114.906 123.02Z" fill="black"/>
<path fill-rule="evenodd" clip-rule="evenodd" d="M111.625 122.852C111.416 122.855 111.207 122.859 111 122.862C111.21 122.858 111.417 122.855 111.625 122.852Z" fill="black"/>
<path fill-rule="evenodd" clip-rule="evenodd" d="M94.7499 154.109C94.541 154.108 94.3321 154.107 94.1249 154.105C94.3346 154.107 94.5422 154.108 94.7499 154.109Z" fill="black"/>
<path fill-rule="evenodd" clip-rule="evenodd" d="M122.875 74.2927C123.135 74.2745 123.396 74.2564 123.656 74.2383C123.396 74.2564 123.135 74.2745 122.875 74.2927Z" fill="black"/>
<path fill-rule="evenodd" clip-rule="evenodd" d="M126.376 92.625C126.386 92.3645 126.395 92.1041 126.405 91.8438C126.395 92.1044 126.386 92.3647 126.376 92.625Z" fill="black"/>
<path fill-rule="evenodd" clip-rule="evenodd" d="M106.781 122.387C106.624 122.388 106.468 122.39 106.312 122.392C106.47 122.39 106.625 122.388 106.781 122.387Z" fill="black"/>
<path fill-rule="evenodd" clip-rule="evenodd" d="M103.187 128.77C103.396 128.786 103.604 128.803 103.812 128.82C103.604 128.803 103.396 128.786 103.187 128.77Z" fill="black"/>
<path fill-rule="evenodd" clip-rule="evenodd" d="M102.792 136.688C102.795 136.479 102.799 136.271 102.802 136.062C102.798 136.271 102.795 136.479 102.792 136.688Z" fill="black"/>
<path fill-rule="evenodd" clip-rule="evenodd" d="M120.687 128.358C120.896 128.338 121.104 128.317 121.312 128.297C121.104 128.317 120.896 128.338 120.687 128.358Z" fill="black"/>
<path fill-rule="evenodd" clip-rule="evenodd" d="M134.966 124.656C134.978 124.448 134.99 124.239 135.003 124.031C134.99 124.24 134.978 124.448 134.966 124.656Z" fill="black"/>
<path fill-rule="evenodd" clip-rule="evenodd" d="M116.469 123.173C116.312 123.171 116.155 123.169 116 123.168C116.157 123.169 116.313 123.171 116.469 123.173Z" fill="black"/>
<path fill-rule="evenodd" clip-rule="evenodd" d="M102.808 148.406C102.8 148.25 102.793 148.093 102.785 147.938C102.793 148.094 102.8 148.25 102.808 148.406Z" fill="black"/>
<path fill-rule="evenodd" clip-rule="evenodd" d="M120.327 140.438C120.668 141.284 120.477 140.685 120.485 140.88C120.194 140.919 120.141 140.772 120.327 140.438Z" fill="black"/>
<path fill-rule="evenodd" clip-rule="evenodd" d="M106 122.396C105.843 122.39 105.686 122.385 105.531 122.379C105.689 122.385 105.844 122.39 106 122.396Z" fill="black"/>
<path fill-rule="evenodd" clip-rule="evenodd" d="M137.938 106.531C137.948 106.323 137.958 106.114 137.968 105.906C137.958 106.115 137.948 106.323 137.938 106.531Z" fill="black"/>
<path fill-rule="evenodd" clip-rule="evenodd" d="M102.797 146.844C102.797 146.635 102.796 146.427 102.796 146.219C102.796 146.428 102.797 146.636 102.797 146.844Z" fill="black"/>
<path fill-rule="evenodd" clip-rule="evenodd" d="M102.781 142.156C102.791 142 102.802 141.843 102.813 141.688C102.802 141.844 102.791 142 102.781 142.156Z" fill="black"/>
<path fill-rule="evenodd" clip-rule="evenodd" d="M135.275 121.688C135.289 121.531 135.304 121.375 135.319 121.219C135.304 121.375 135.289 121.532 135.275 121.688Z" fill="black"/>
<path fill-rule="evenodd" clip-rule="evenodd" d="M100.745 142.625C100.758 142.782 100.772 142.938 100.786 143.094C100.772 142.937 100.758 142.781 100.745 142.625Z" fill="black"/>
<path fill-rule="evenodd" clip-rule="evenodd" d="M100.43 141.375C100.445 141.531 100.461 141.688 100.476 141.844C100.461 141.687 100.445 141.531 100.43 141.375Z" fill="black"/>
<path fill-rule="evenodd" clip-rule="evenodd" d="M131.686 119.969C131.697 119.812 131.709 119.656 131.721 119.5C131.709 119.657 131.697 119.813 131.686 119.969Z" fill="black"/>
<path fill-rule="evenodd" clip-rule="evenodd" d="M51.9374 141.163C52.1455 141.146 52.3539 141.13 52.5624 141.113C52.3535 141.13 52.1453 141.146 51.9374 141.163Z" fill="black"/>
<path fill-rule="evenodd" clip-rule="evenodd" d="M130.306 144.969C130.3 145.125 130.294 145.282 130.288 145.438C130.294 145.28 130.3 145.125 130.306 144.969Z" fill="black"/>
<path fill-rule="evenodd" clip-rule="evenodd" d="M132.779 145.438C132.791 145.281 132.803 145.125 132.814 144.969C132.803 145.125 132.791 145.281 132.779 145.438Z" fill="black"/>
<path fill-rule="evenodd" clip-rule="evenodd" d="M131.835 119.344C131.851 119.187 131.868 119.031 131.884 118.875C131.868 119.032 131.851 119.188 131.835 119.344Z" fill="black"/>
<path fill-rule="evenodd" clip-rule="evenodd" d="M53.1874 141.015C53.3958 140.994 53.6043 140.974 53.8124 140.953C53.6043 140.974 53.3955 140.994 53.1874 141.015Z" fill="black"/>
<path fill-rule="evenodd" clip-rule="evenodd" d="M119.437 123.012C119.333 123.013 119.228 123.014 119.125 123.015C119.23 123.014 119.334 123.013 119.437 123.012Z" fill="black"/>
<path fill-rule="evenodd" clip-rule="evenodd" d="M102.797 140.75C102.797 140.593 102.796 140.437 102.796 140.281C102.796 140.438 102.797 140.594 102.797 140.75Z" fill="black"/>
<path fill-rule="evenodd" clip-rule="evenodd" d="M133.121 140.438C133.066 140.276 133.039 140.117 133.146 139.969C133.138 140.125 133.13 140.281 133.121 140.438Z" fill="black"/>
<path fill-rule="evenodd" clip-rule="evenodd" d="M130.46 137.469C130.455 137.625 130.451 137.782 130.446 137.938C130.451 137.781 130.455 137.625 130.46 137.469Z" fill="black"/>
<path fill-rule="evenodd" clip-rule="evenodd" d="M130.595 152.938C130.604 153.094 130.614 153.25 130.624 153.406C130.614 153.25 130.604 153.093 130.595 152.938Z" fill="black"/>
<path fill-rule="evenodd" clip-rule="evenodd" d="M142.094 96.1055C142.25 96.1278 142.406 96.15 142.562 96.1722C142.406 96.1498 142.25 96.1275 142.094 96.1055Z" fill="black"/>
<path fill-rule="evenodd" clip-rule="evenodd" d="M141.469 96.1196C141.678 96.1322 141.909 96.0314 142.094 96.1791L141.469 96.1196Z" fill="black"/>
<path fill-rule="evenodd" clip-rule="evenodd" d="M119.437 95.957L120.062 96.0114C119.854 95.9933 119.646 95.9752 119.437 95.957Z" fill="black"/>
<path fill-rule="evenodd" clip-rule="evenodd" d="M109.125 129.066C109.333 129.067 109.542 129.068 109.75 129.069C109.541 129.17 109.332 129.18 109.125 129.066Z" fill="black"/>
<path fill-rule="evenodd" clip-rule="evenodd" d="M103.44 155.281C103.428 155.125 103.416 154.968 103.404 154.812C103.416 154.969 103.428 155.125 103.44 155.281Z" fill="black"/>
<path fill-rule="evenodd" clip-rule="evenodd" d="M126.231 96.2188C126.233 96.0622 126.235 95.9059 126.238 95.75C126.235 95.9067 126.233 96.0628 126.231 96.2188Z" fill="black"/>
<path fill-rule="evenodd" clip-rule="evenodd" d="M113.031 129.132C113.24 129.116 113.448 129.099 113.656 129.082C113.448 129.099 113.24 129.116 113.031 129.132Z" fill="black"/>
<path fill-rule="evenodd" clip-rule="evenodd" d="M130.76 156.688C130.764 156.844 130.767 157 130.771 157.156C130.767 156.999 130.764 156.844 130.76 156.688Z" fill="black"/>
<path fill-rule="evenodd" clip-rule="evenodd" d="M134.025 132.156C134.04 132 134.054 131.843 134.068 131.688C134.054 131.844 134.04 132 134.025 132.156Z" fill="black"/>
<path fill-rule="evenodd" clip-rule="evenodd" d="M141.216 90.4375C141.228 90.2809 141.24 90.1247 141.252 89.9688C141.24 90.1253 141.228 90.2814 141.216 90.4375Z" fill="black"/>
<path fill-rule="evenodd" clip-rule="evenodd" d="M126.386 77C126.389 77.1564 126.392 77.313 126.395 77.4688C126.392 77.312 126.389 77.1559 126.386 77Z" fill="black"/>
<path fill-rule="evenodd" clip-rule="evenodd" d="M120.844 74.082C121.052 74.0994 121.261 74.1169 121.469 74.1341C121.26 74.1167 121.052 74.0994 120.844 74.082Z" fill="black"/>
<path fill-rule="evenodd" clip-rule="evenodd" d="M89.5936 162.889C89.8021 162.869 90.0102 162.849 90.2186 162.828C90.0102 162.849 89.8021 162.869 89.5936 162.889Z" fill="black"/>
<path fill-rule="evenodd" clip-rule="evenodd" d="M82.7186 164.925C82.9272 164.818 83.1353 164.848 83.3436 164.926C83.1353 164.925 82.9268 164.925 82.7186 164.925Z" fill="black"/>
<path fill-rule="evenodd" clip-rule="evenodd" d="M163.812 153.164C163.603 153.169 163.395 153.174 163.187 153.178C163.397 153.174 163.605 153.169 163.812 153.164Z" fill="black"/>
<path fill-rule="evenodd" clip-rule="evenodd" d="M160.687 150.063C160.948 150.044 161.208 150.024 161.469 150.004C161.226 150.157 160.948 150.044 160.687 150.063Z" fill="black"/>
<path fill-rule="evenodd" clip-rule="evenodd" d="M157.719 150.385C157.979 150.366 158.239 150.347 158.5 150.328C158.24 150.347 157.979 150.366 157.719 150.385Z" fill="black"/>
<path fill-rule="evenodd" clip-rule="evenodd" d="M155.219 153.04C155.427 153.021 155.635 153.003 155.844 152.984C155.635 153.003 155.427 153.021 155.219 153.04Z" fill="black"/>
<path fill-rule="evenodd" clip-rule="evenodd" d="M156.312 147.699C156.156 147.7 155.999 147.701 155.844 147.702C156.001 147.701 156.157 147.7 156.312 147.699Z" fill="black"/>
<path fill-rule="evenodd" clip-rule="evenodd" d="M160.219 156.307C160.427 156.289 160.635 156.271 160.844 156.254C160.649 156.39 160.43 156.312 160.219 156.307Z" fill="black"/>
<path fill-rule="evenodd" clip-rule="evenodd" d="M148.187 142.043C148.135 142.172 147.859 142.155 147.876 142.023C147.979 142.03 148.083 142.037 148.187 142.043Z" fill="black"/>
<path fill-rule="evenodd" clip-rule="evenodd" d="M140.912 142.625C140.919 142.781 140.925 142.938 140.931 143.094C140.925 142.937 140.919 142.781 140.912 142.625Z" fill="black"/>
<path fill-rule="evenodd" clip-rule="evenodd" d="M162.25 143.453C162.406 143.45 162.562 143.448 162.719 143.445C162.564 143.556 162.408 143.54 162.25 143.453Z" fill="black"/>
<path fill-rule="evenodd" clip-rule="evenodd" d="M156.312 141.137C156.208 141.138 156.103 141.14 156 141.141C156.105 141.14 156.209 141.138 156.312 141.137Z" fill="black"/>
<path fill-rule="evenodd" clip-rule="evenodd" d="M152.25 151.012C152.458 150.992 152.667 150.973 152.875 150.953C152.666 150.973 152.458 150.992 152.25 151.012Z" fill="black"/>
<path fill-rule="evenodd" clip-rule="evenodd" d="M154.437 156.954C154.646 156.878 154.855 156.851 155.062 156.956C154.854 156.955 154.646 156.954 154.437 156.954Z" fill="black"/>
<path fill-rule="evenodd" clip-rule="evenodd" d="M154.106 135.416L153.812 135.314C154.177 135.31 154.542 135.305 154.906 135.301C154.907 135.301 154.148 135.419 154.106 135.416Z" fill="black"/>
<path fill-rule="evenodd" clip-rule="evenodd" d="M141.469 138.672C141.729 138.568 141.989 138.589 142.25 138.67C141.989 138.671 141.729 138.672 141.469 138.672Z" fill="black"/>
<path fill-rule="evenodd" clip-rule="evenodd" d="M157.25 136.137C157.093 136.139 156.936 136.14 156.781 136.142C156.938 136.14 157.094 136.139 157.25 136.137Z" fill="black"/>
<path fill-rule="evenodd" clip-rule="evenodd" d="M153.969 134.082C154.229 134.099 154.49 134.116 154.75 134.133C154.49 134.116 154.229 134.099 153.969 134.082Z" fill="black"/>
<path fill-rule="evenodd" clip-rule="evenodd" d="M151 133.926C151.208 133.943 151.417 133.96 151.625 133.977C151.416 133.96 151.208 133.943 151 133.926Z" fill="black"/>
<path fill-rule="evenodd" clip-rule="evenodd" d="M148.031 136.925C147.926 136.922 147.822 136.92 147.719 136.918C147.824 136.92 147.927 136.922 148.031 136.925Z" fill="black"/>
<path fill-rule="evenodd" clip-rule="evenodd" d="M151.312 135.367C151.208 135.361 151.103 135.354 151 135.348C151.105 135.354 151.209 135.361 151.312 135.367Z" fill="black"/>
<path fill-rule="evenodd" clip-rule="evenodd" d="M149.281 135.36C149.176 135.357 149.072 135.354 148.969 135.352C149.074 135.355 149.177 135.357 149.281 135.36Z" fill="black"/>
<path fill-rule="evenodd" clip-rule="evenodd" d="M154.906 135.217C154.906 135.257 155.377 135.052 155.375 135.243L154.906 135.217Z" fill="black"/>
<path fill-rule="evenodd" clip-rule="evenodd" d="M97.7186 125.293C97.8878 124.603 97.8418 124.062 98.4444 124.504C98.775 124.746 99.3203 125.974 99.2789 126.391C99.228 126.904 98.9939 127.108 98.5108 126.945C97.9555 126.757 97.7352 125.81 97.7186 125.293Z" fill="black"/>
<path fill-rule="evenodd" clip-rule="evenodd" d="M128.161 121.101C129.56 121.101 128.95 122.59 127.783 122.624C127.247 122.639 126.476 122.533 126.65 121.816C126.743 121.433 128.102 120.917 128.161 121.101Z" fill="black"/>
<path fill-rule="evenodd" clip-rule="evenodd" d="M113.152 124.031C114.162 124.52 112.741 126.666 111.823 126.135C110.648 125.455 112.737 124.338 113.152 124.031Z" fill="black"/>
<path fill-rule="evenodd" clip-rule="evenodd" d="M110.694 126.062C111.025 126.423 112.515 127.646 111.694 128.137C110.684 128.742 109.915 126.746 110.694 126.062Z" fill="black"/>
<path fill-rule="evenodd" clip-rule="evenodd" d="M93.7621 125.125C93.4335 124.49 93.8857 122.827 94.8891 123.13C95.8988 123.437 94.3177 124.956 93.7621 125.125Z" fill="black"/>
<path fill-rule="evenodd" clip-rule="evenodd" d="M116.053 125.491C116.708 125.227 116.583 126.008 116.682 126.259C116.795 126.545 117.371 127.242 117.227 127.546C117.012 127.998 116.499 127.71 116.22 127.417C115.731 126.903 115.766 126.078 116.053 125.491Z" fill="black"/>
<path fill-rule="evenodd" clip-rule="evenodd" d="M106.069 126.215C105.523 126.215 104.219 124.64 104.985 124.376C105.936 124.048 106.731 126.33 106.069 126.215Z" fill="black"/>
<path fill-rule="evenodd" clip-rule="evenodd" d="M124.939 123.719C125.439 123.842 126.101 125.258 125.347 125.422C124.513 125.604 124.364 124.11 124.939 123.719Z" fill="black"/>
<path fill-rule="evenodd" clip-rule="evenodd" d="M121.907 126.375C121.514 125.62 121.418 124.003 122.375 125.301C122.583 125.582 122.797 125.468 122.69 125.932C122.597 126.337 122.226 126.375 121.907 126.375Z" fill="black"/>
<path fill-rule="evenodd" clip-rule="evenodd" d="M101.248 122.469C101.647 123.07 101.529 124.957 100.694 123.841C100.339 123.367 100.583 122.491 101.248 122.469Z" fill="black"/>
<path fill-rule="evenodd" clip-rule="evenodd" d="M121.342 65.7653C122.117 65.5651 122.303 67.3936 121.851 67.5952C121.218 67.8773 121.297 66.0712 121.342 65.7653Z" fill="black"/>
<path fill-rule="evenodd" clip-rule="evenodd" d="M170.399 158.664C169.679 158.622 168.671 158.425 169.761 157.915C170.453 157.591 171.482 157.568 172.212 157.701C172.716 157.793 173.471 158.21 172.703 158.751C172.253 159.068 170.946 158.679 170.399 158.664Z" fill="black"/>
<path fill-rule="evenodd" clip-rule="evenodd" d="M169.593 159.969C169.384 159.945 169.176 159.922 168.969 159.899C169.136 159.596 169.62 159.532 169.593 159.969Z" fill="black"/>
<path fill-rule="evenodd" clip-rule="evenodd" d="M170.531 158.633C170.74 158.637 170.949 158.642 171.156 158.647C170.947 158.642 170.739 158.637 170.531 158.633Z" fill="black"/>

</svg>
