<svg width="24" height="24" viewBox="0 0 24 24" fill="none" xmlns="http://www.w3.org/2000/svg">
<mask id="mask0_2582_1163" style="mask-type:luminance" maskUnits="userSpaceOnUse" x="2" y="2" width="20" height="20">
<path d="M22 2H2V22H22V2Z" fill="white"/>
</mask>
<g mask="url(#mask0_2582_1163)">
<path d="M21.6 12.2291C21.6 11.52 21.5364 10.8382 21.4182 10.1836H12V14.0518H17.3818C17.15 15.3018 16.4455 16.3609 15.3864 17.07V19.5791H18.6182C20.5091 17.8382 21.6 15.2745 21.6 12.2291Z" fill="#4285F4"/>
<path d="M11.9999 21.9984C14.6999 21.9984 16.9635 21.1029 18.6181 19.5757L15.3863 17.0666C14.4908 17.6666 13.3453 18.0211 11.9999 18.0211C9.39528 18.0211 7.19078 16.262 6.40438 13.8984H3.06348V16.4893C4.70898 19.7575 8.09078 21.9984 11.9999 21.9984Z" fill="#34A853"/>
<path d="M6.4045 13.8987C6.2045 13.2987 6.0909 12.6578 6.0909 11.9987C6.0909 11.3396 6.2045 10.6987 6.4045 10.0987V7.50781H3.0636C2.3864 8.85781 2 10.3851 2 11.9987C2 13.6123 2.3864 15.1396 3.0636 16.4896L6.4045 13.8987Z" fill="#FBBC04"/>
<path d="M11.9999 5.9773C13.4681 5.9773 14.7862 6.4818 15.8226 7.4727L18.6908 4.6045C16.959 2.9909 14.6953 2 11.9999 2C8.09078 2 4.70898 4.2409 3.06348 7.5091L6.40438 10.1C7.19078 7.7364 9.39528 5.9773 11.9999 5.9773Z" fill="#E94235"/>
</g>
</svg>
