<svg width="64" height="64" viewBox="0 0 64 64" fill="none" xmlns="http://www.w3.org/2000/svg">
<circle cx="32" cy="32" r="32" fill="none"/>
<circle cx="25" cy="30" r="7" fill="white"/>
<circle cx="28" cy="31" r="3" fill="black"/>
<circle cx="39" cy="30" r="7" fill="white"/>
<circle cx="36" cy="31" r="3" fill="black"/>
<path d="M24.9888 40.2868C26.1755 40.027 27.5825 39.9394 28.7378 40.0417C29.2081 40.0779 29.7054 40.1515 30.2134 40.2712C30.6731 40.3795 31.1087 40.5161 31.5113 40.6726C32.0861 40.8 32.7988 40.9885 33.6831 41.2497C34.4434 41.402 35.0726 41.5278 35.5913 41.6354C36.2235 41.4515 36.9409 41.2684 37.6792 41.072C40.0807 40.4331 41.7878 39.8465 42.0718 40.9138C42.3554 41.9812 40.6384 43.3648 38.2368 44.0036C36.9643 44.3421 35.7551 44.401 34.857 44.2253C34.2788 44.2074 33.6494 44.1371 33.0005 44.0144C32.673 43.9524 32.3571 43.8793 32.0562 43.7985C31.2974 43.6867 30.3869 43.4685 29.4165 43.2399C28.7325 43.0788 28.0921 42.9291 27.5308 42.7751C26.8165 42.9406 26.0805 43.0945 25.4165 43.2399C22.9891 43.7715 21.2576 44.2823 21.021 43.2038C20.7852 42.1249 22.5614 40.8184 24.9888 40.2868Z" fill="black"/>
</svg>
