<svg width="64" height="64" viewBox="0 0 64 64" fill="none" xmlns="http://www.w3.org/2000/svg">
<circle cx="32" cy="32" r="32" fill="none"/>
<circle cx="25" cy="30" r="7" fill="white"/>
<circle cx="39" cy="30" r="7" fill="white"/>
<path d="M25 22L27.4452 26.6345L32.6085 27.5279L28.9564 31.2855L29.7023 36.4721L25 34.16L20.2977 36.4721L21.0436 31.2855L17.3915 27.5279L22.5548 26.6345L25 22Z" fill="black"/>
<path d="M39 22L41.4452 26.6345L46.6085 27.5279L42.9564 31.2855L43.7023 36.4721L39 34.16L34.2977 36.4721L35.0436 31.2855L31.3915 27.5279L36.5548 26.6345L39 22Z" fill="black"/>
<path d="M43 39.3872C43 41.3202 40.0081 45.8885 32 45.8885C23.9919 45.8885 20 41.3206 20 39.3876C20 37.4546 23.9919 43.3884 32 43.3884C40.0081 43.3884 43 37.4542 43 39.3872Z" fill="black"/>
</svg>
