<svg width="64" height="64" viewBox="0 0 64 64" fill="none" xmlns="http://www.w3.org/2000/svg">
<circle cx="32" cy="32" r="32" fill="none"/>
<circle cx="39" cy="30" r="7" fill="white"/>
<circle cx="25" cy="30" r="7" fill="white"/>
<path d="M37.9012 27.4651C38.3251 26.5141 39.6749 26.5141 40.0988 27.4651C40.2736 27.8573 40.6443 28.1266 41.0713 28.1716C42.1067 28.2809 42.5239 29.5647 41.7504 30.2617C41.4314 30.5492 41.2899 30.9849 41.3789 31.405C41.595 32.4235 40.503 33.2169 39.6011 32.6967C39.2291 32.4821 38.7709 32.4821 38.3989 32.6967C37.497 33.2169 36.405 32.4235 36.621 31.405C36.7101 30.9849 36.5686 30.5492 36.2496 30.2617C35.4761 29.5647 35.8933 28.2809 36.9287 28.1716C37.3557 28.1266 37.7264 27.8573 37.9012 27.4651Z" fill="black"/>
<path d="M23.9012 27.4651C24.3251 26.5141 25.6749 26.5141 26.0988 27.4651C26.2736 27.8573 26.6443 28.1266 27.0713 28.1716C28.1067 28.2809 28.5239 29.5647 27.7504 30.2617C27.4314 30.5492 27.2899 30.9849 27.3789 31.405C27.595 32.4235 26.503 33.2169 25.6011 32.6967C25.2291 32.4821 24.7709 32.4821 24.3989 32.6967C23.497 33.2169 22.405 32.4235 22.621 31.405C22.7101 30.9849 22.5686 30.5492 22.2496 30.2617C21.4761 29.5647 21.8933 28.2809 22.9287 28.1716C23.3557 28.1266 23.7264 27.8573 23.9012 27.4651Z" fill="black"/>
<path d="M41 43.3349C41 44.8314 36.2269 43.3349 32.3214 43.3349C28.416 43.3349 23 44.8314 23 43.3349C23 41.8384 28.416 40 32.3214 40C36.2269 40 41 41.8384 41 43.3349Z" fill="black"/>
<path d="M17 43.3304C17 45.1697 15.5 44.9956 15.5 44.9956C15.5 44.9956 14 45.1697 14 43.3304C14 42.2203 14.75 40.5551 15.4997 40C16.25 40.5551 17 42.2203 17 43.3304Z" fill="black"/>
<path d="M21 37.9965C21 40.2037 19.5 39.9947 19.5 39.9947C19.5 39.9947 18 40.2037 18 37.9965C18 36.6643 18.75 34.6661 19.4997 34C20.25 34.6661 21 36.6643 21 37.9965Z" fill="black"/>
</svg>
